<?xml version="1.0" encoding="utf-8"?>
<!-- Generator: Adobe Illustrator 17.0.0, SVG Export Plug-In . SVG Version: 6.00 Build 0)  -->
<!DOCTYPE svg PUBLIC "-//W3C//DTD SVG 1.1//EN" "http://www.w3.org/Graphics/SVG/1.1/DTD/svg11.dtd">
<svg version="1.1" id="Layer_1" xmlns="http://www.w3.org/2000/svg" xmlns:xlink="http://www.w3.org/1999/xlink" x="0px" y="0px"
	 width="559.811px" height="157px" viewBox="32.439 637 559.811 157" enable-background="new 32.439 637 559.811 157"
	 xml:space="preserve">
<g id="tquNlV_1_">
	<g>
		<path fill="#58627A" d="M126,637.1c-4.2,2.4-8.3,5-12.9,7.6c6.2,2.4,11.5,4.4,16.9,6.6c0,0.2,0,0.4-0.2,0.6
			c-4.6,0.2-9.3,0.6-13.9,0.8c-1.4,0-3,0.4-4.4,0.4c-5.6-0.6-8.1,2.8-9.9,7.4c-1.6,4.2-3.2,8.3-5,13.1c-3.2-4.4-6.6-8.1-9.1-12.5
			c-1.6-2.6-3-3.2-5.8-2c-4.8,2-9.7,3.6-15.3,4.8c5-4.6,9.9-8.9,14.9-13.7c-1.2-2-2.8-4.2-4.8-7.2c6.2-0.2,11.9-0.4,17.5-0.8
			c1.8,0,3.6-0.4,5.4-0.8c6.8-1.4,13.5-2.8,20.3-4.4C122.1,637.1,124,637.1,126,637.1z"/>
		<path fill="#58627A" d="M111.7,793.9c3.8-1.6,7.4-3.2,11.7-5.2c-2.4-1.6-4.2-2.8-6-4c-1.6-1.2-3.2-2.6-4.6-3.6
			c6,0,11.7,0.2,17.5,0c1.4,0,3.2-0.8,4.2-1.8c4-4.2,7.7-8.7,12.1-13.5c0,4.8,0,8.9,0,13.9c5.4-1.8,10.5-3.6,15.7-5.4
			c0.2,0.2,0.6,0.6,0.8,0.8c-0.8,0.4-1.6,0.4-2.4,1c-12.1,9.5-25.6,15.5-40.9,17.3c-0.8,0-1.6,0.4-2.2,0.6
			C115.9,793.9,113.7,793.9,111.7,793.9z"/>
		<path fill="#58627A" d="M79.1,684.4c6.4,3,12.3,5.6,17.9,8.5c2.8,1.4,4.6,1.2,6.8-1.4c4.8-5.8,10.1-11.1,15.3-16.7
			c0.6-0.6,1.4-1.2,2.4-2c-0.8,9.7-1.6,19.3-2.4,29c9.1,2.8,18.1,5.6,28,8.5c-8.5,3-16.3,5.8-24.2,7.9c-3.6,1-4.8,2.6-4.8,6.2
			c0.2,6.8,0.2,13.7,0.2,21.5c-4.2-4.6-7.7-8.3-11.3-12.3c-1-1.2-2.4-2.4-3-3.8c-2.4-5.2-6.2-5.4-11.1-4c-5.4,1.6-11.1,2.2-17.9,3.4
			c3.8-5.6,6.8-10.5,10.3-14.9c3.4-4,4.2-7.2,1.2-11.9c-2.8-4.4-4.2-9.5-6.4-14.3C79.9,687.4,79.7,686,79.1,684.4z"/>
		<path fill="#58627A" d="M175.3,761.7c-6.4-6.2-6.2-6-13.1-2.6c-4.6,2.2-9.3,4-14.1,5.8c-0.2-0.2-0.2-0.6-0.4-0.8
			c3.4-5.2,6.8-10.3,9.7-14.9c-5.4-5.4-10.5-10.3-15.7-15.5c0.2-0.2,0.4-0.4,0.8-0.6c6.6,0,13.1,0,19.5,0c3.2,0,5-1,6.2-4
			c2.8-6.8,5.8-13.5,9.3-20.3c0.8,6.6,1.4,13.1,2.2,20.7c3.4-2.4,6.4-4.4,9.3-6.6c-1.2,6.6-3.6,12.5-7.2,17.9
			c-1.8,2.8-3,5.8-3.6,9.1C177.9,753.5,176.5,757.3,175.3,761.7z"/>
		<path fill="#58627A" d="M110.3,780.4c-5.2,0.2-10.1,0.4-15.9,0.8c0.8,3.8,1.4,7.4,2.2,11.7c-3.6-2-7.6-3.2-9.9-5.8
			c-5.8-6-12.7-8.9-20.5-11.1c-4.2-1.2-8.1-4-12.9-6.4c6-0.8,10.9-1.6,16.3-2.4c-3-6.6-5.6-12.3-8.1-18.1c0.2-0.2,0.6-0.4,0.8-0.6
			c0.8,0.8,1.8,1.4,2.6,2.2c4,3.2,7.9,6,11.7,9.3c2.2,1.8,3.8,1.6,6,0c4.8-3.8,9.7-7.4,15.1-11.3c-0.4,2.6-0.8,5-1,7.6
			c-0.4,3.2-0.6,6.6-1.4,9.7c-1.2,4.6,0.6,6.6,4.6,8.1c3.6,1.6,7.2,3.6,10.5,5.4C110.3,780,110.3,780.2,110.3,780.4z"/>
		<path fill="#58627A" d="M158.6,652.2c0.4,0.2,0.4,0.2,0.6,0.2c8.1,10.7,16.3,21.5,24.4,32.2c0.6,0.6,0.8,1.6,1.4,2.6
			c-3.2-1.2-6.2-2.2-9.3-3.4c0.8,7.6,1.4,14.3,2,21.3c-0.2,0-0.4,0-0.8,0.2c-3.4-5.6-7-11.1-10.1-16.7c-2.4-4.2-5-6.2-10.1-5
			c-5.2,1.2-10.5,1.6-15.9,2.4c4-5.2,7.7-10.3,12.1-15.9c-6.6-5.8-12.7-11.3-19.5-17.5c3.2,0.6,5.8,1,8.3,1.8
			c2.6,0.6,5.2,1.4,7.7,2.4s5,2,7.9,3.2C158,657.2,158.2,654.8,158.6,652.2z"/>
		<path fill="#58627A" d="M46,737.6c-1.8,4.2-3.6,8.3-5.2,12.5c-0.2,0-0.6,0.2-0.8,0.2c-1-5.2-2.2-10.3-2.6-15.7
			c-0.2-4-1-7.4-3.2-10.7c-2.8-4-2.4-5.2,2.2-7.2c2.4-1,3.6-2.6,4.6-5c1.8-4.6,4.2-9.1,6.2-13.5c0.4,0,0.6,0.2,1,0.2
			c0.6,4.6,1.2,9.1,1.8,13.9c6.6-0.6,12.7-1.2,18.3-1.6c-3.4,3.8-6.8,8.1-10.5,11.7c-4,3.6-4.8,7.2-2.4,11.9
			c1.8,3.8,3.2,7.7,5.2,12.5C55.1,743.6,50.7,740.8,46,737.6z"/>
		<path fill="#58627A" d="M60.3,654.8c-2,3.8-4,7.6-6.2,11.9c3.6-0.4,6.6-0.6,9.5-1c0.2,0.2,0.2,0.4,0.4,0.6
			c-1.6,1.2-2.8,2.6-4.6,3.6c-8.9,5.2-11.3,13.3-11.3,22.9c0,1,0,2-0.8,3.4c-1.8-2.8-3.4-5.6-5.6-8.9c-2.8,3.8-5.4,7.6-8.3,11.9
			C37.4,680.6,46.3,666.3,60.3,654.8z"/>
	</g>
</g>
<g>
	<path fill="#58627A" d="M252,689.8l-0.4,9.9c0,0.6-0.4,0.8-1,0.8c-1.2,0.2-2.8,0.4-5,0.8c-2.2,0.4-4.2,0.4-6,0.4
		c-5.8,0-10.3-2.2-13.5-6.6c-3-3.8-4.4-8.9-4.4-14.9c0-5.6,1.4-10.5,4.4-14.5c3.2-4.6,7.6-6.8,12.9-6.8c1.4,0,3.2,0.2,5.8,0.4
		c2.6,0.2,4.6,0.4,6,0.6c0.6,0,0.8,0.4,0.8,0.8v10.5c0,0.6-0.2,1-0.6,1c-0.2,0-0.4-0.2-0.6-0.8c-0.8-3.4-2-5.8-3.6-7.4
		c-1.8-1.6-4.4-2.4-7.7-2.4c-7.2,0-10.9,6.6-10.9,19.5c0,4.6,0.8,8.3,2.4,11.5c2,4,5.2,6,9.3,6c3.6,0,6.2-0.8,7.7-2.2
		c1.4-1.2,2.4-3.8,3.4-7.2c0-0.4,0.4-0.6,0.6-0.6C251.8,689,252,689.2,252,689.8z"/>
	<path fill="#58627A" d="M302.5,700.5c0,0.4-0.4,0.6-1.2,0.6h-14.5c-0.8,0-1.2-0.2-1.2-0.4c0-0.4,0.4-0.6,1.2-0.8l1.4-0.4
		c1.6-0.4,2.2-1.4,2.2-3v-14.1c0-0.4-0.2-0.4-0.6-0.4h-18.3c-0.4,0-0.4,0.2-0.4,0.4v14.1c0,1.8,0.8,2.8,2.2,3l2.8,0.4
		c0.8,0,1.2,0.4,1.2,0.8s-0.4,0.6-1.2,0.6h-15.9c-0.8,0-1.2-0.2-1.2-0.4c0-0.4,0.4-0.8,1.2-0.8l2.8-0.4c1.6-0.2,2.2-1.2,2.2-3
		c0,1.2,0,0.8,0-1.6c0-5.4,0-8.9,0-10.9v-19.1c0-1.8-0.8-2.8-2.2-3l-2.8-0.4c-0.8,0-1-0.4-1-0.8c0-0.4,0.4-0.6,1.2-0.6h15.9
		c0.8,0,1.2,0.2,1.2,0.4c0,0.4-0.4,0.8-1.2,0.8l-2.8,0.4c-1.6,0.2-2.2,1.2-2.2,3v13.5c0,0.4,0.2,0.4,0.4,0.4H290
		c0.4,0,0.4-0.2,0.4-0.4v-13.7c0-1.8-0.8-2.8-2.2-3l-2.8-0.4c-0.8,0-1.2-0.4-1.2-0.8c0-0.4,0.4-0.6,1.2-0.6h15.9
		c0.8,0,1.2,0.2,1.2,0.4c0,0.4-0.4,0.8-1.2,0.8l-2.8,0.4c-1.6,0.2-2.2,1.2-2.2,3c0-1.2,0-0.8,0,1.4c0,5.4,0,8.9,0,10.9
		c0-1.6,0-0.8,0,2.2c0,0.8,0,1.6,0,2.4c0,3,0,3.8,0,2.2v12.3c0,1.8,0.8,2.8,2.2,3l2.8,0.4C302.3,699.9,302.5,700.1,302.5,700.5z"/>
	<path fill="#58627A" d="M347.2,700.5c0,0.4-0.4,0.4-1.2,0.4h-14.1c-0.8,0-1.2-0.2-1.2-0.4c0-0.4,0.4-0.6,1.2-0.8l2.2-0.4
		c1.2-0.2,1.6-0.8,1.6-1.8c0-0.2,0-0.4-0.2-0.6l-2.6-7.2c0-0.4-0.4-0.6-0.8-0.6h-14.7c-0.4,0-0.6,0.2-0.8,0.6l-2.6,8.1
		c-0.2,0.8-0.4,1.4-0.2,1.8c0,0.2,0.2,0.2,0.4,0.4c0.2,0.2,0.4,0.4,0.4,0.6c0,0.4-0.4,0.4-1.2,0.4h-7.7c-0.8,0-1.2-0.2-1.2-0.4
		c0-0.4,0.4-0.6,1.2-0.8l1.4-0.4c1-0.2,1.6-0.8,1.8-1.4l14.5-37.6c0.2-0.4,0.8-0.6,2-0.6s1.8,0.2,2,0.6l15.3,37.8
		c0.4,0.8,1,1.2,1.8,1.4l1.8,0.4C346.8,699.9,347.2,700.1,347.2,700.5z M331.5,685.8l-7-18.1c0-0.2-0.2-0.2-0.4-0.2
		c-0.2,0-0.2,0-0.4,0.2l-6.2,18.3c0,0.4,0,0.6,0.4,0.6h12.9C331.5,686.6,331.7,686.2,331.5,685.8z"/>
	<path fill="#58627A" d="M402.2,700.5c0,0.4-0.4,0.4-1.2,0.4h-15.1c-0.8,0-1.2-0.2-1.2-0.4c0-0.4,0.4-0.6,1.2-0.8l2.2-0.4
		c1.6-0.2,2.2-1.4,2.2-3v-25.2c0-0.4-0.2-0.6-0.4-0.6c-0.2,0-0.4,0-0.6,0.4l-14.5,28.4c-0.2,0.2-0.4,0.4-0.6,0.4s-0.4-0.2-0.6-0.4
		l-13.7-28.6c0-0.2-0.2-0.2-0.4-0.2c-0.2,0-0.4,0.2-0.4,0.4l0.6,24.6c0,2.2,0.4,3.6,0.8,4.2l0.8,0.8c0,0.4-0.2,0.4-0.8,0.4h-9.9
		c-0.8,0-1.2-0.2-1.2-0.4c0-0.4,0.4-0.6,1.2-0.8l2.2-0.4c1.4-0.2,2.2-1.4,2.2-3c0.4-16.1,0.6-26.4,0.6-31.4c0-1.8-0.8-3-2.2-3
		l-3-0.4c-0.8,0-1.2-0.4-1.2-0.8s0.4-0.4,1.2-0.4h9.7c0.6,0,1.2,0.2,1.4,0.6l13.3,29c0.2,0.2,0.4,0.4,0.6,0.4s0.4-0.2,0.6-0.4
		l14.1-28.4c0.4-0.8,0.8-1.2,1.4-1.2h5.4c0.6,0,0.8,0.2,0.8,0.4c0,0-0.2,2-0.8,6.4c-0.6,4.4-0.8,7.7-0.8,10.3v6.8v12.3
		c0,1.8,0.8,2.8,2.4,3l2.8,0.4C402,699.9,402.2,700.1,402.2,700.5z"/>
	<path fill="#58627A" d="M440.4,671.5c0,4.2-1.8,7.4-5.6,9.5c-3,1.8-6.8,2.6-11.3,2.6h-4.2c-0.8,0-1.4,0.4-1.4,1.2v11.9
		c0,2,0.8,3,2.2,3l2.2,0.2c0.8,0,1.2,0.2,1.2,0.8c0,0.4-0.4,0.6-1.2,0.6H410c-0.8,0-1-0.2-1-0.4c0-0.4,0.4-0.6,1-0.8
		c1.4-0.4,2.2-1.4,2.2-3c0,1.2,0,0.8,0-1.6c0-5.8,0-9.5,0-11.5v-18.7c0-1.8-0.8-2.8-2.2-3l-2.8-0.4c-0.8,0-1-0.4-1-0.8
		s0.4-0.6,1.2-0.6h19.3c4,0,7.2,0.8,9.7,2.6C439,664.7,440.4,667.7,440.4,671.5z M434.4,671.3c0-3.2-1-5.6-3.2-6.8
		c-1.8-1-4.4-1.6-7.7-1.6h-3.8c-1.2,0-1.8,0.6-1.8,1.6v15.3c0,0.8,0.4,1.2,1.4,1.2h3.6C430.4,681,434.4,677.6,434.4,671.3z"/>
	<path fill="#58627A" d="M465,700.5c0,0.4-0.4,0.6-1.2,0.6h-15.9c-0.8,0-1-0.2-1-0.4c0-0.4,0.4-0.8,1-0.8s1.4-0.2,3-0.4
		c1.4-0.2,2.2-1.2,2.2-3c0,1.2,0,0.8,0-1.4c0-5.4,0-8.9,0-10.9v-19.1c0-1.8-0.8-2.8-2.2-3l-2.8-0.4c-0.8,0-1-0.4-1-0.8
		c0-0.4,0.4-0.6,1-0.6H464c0.8,0,1.2,0.2,1.2,0.4c0,0.4-0.4,0.8-1.2,0.8l-2.8,0.4c-1.6,0.2-2.2,1.2-2.2,3c0-1.2,0-0.8,0,1.4
		c0,5.4,0,8.9,0,10.9c0-1.6,0-0.8,0,2.2c0,0.8,0,1.6,0,2.4c0,3,0,3.8,0,2.2v12.3c0,1.8,0.8,2.8,2.2,3c0.8,0.2,1.6,0.2,2.8,0.4
		C464.6,699.9,465,700.1,465,700.5z"/>
	<path fill="#58627A" d="M554,660.6c0,0.4-0.4,0.6-1,0.8l-2.2,0.4c-1.4,0.2-2.2,1.2-2.2,3c-0.2,8.5-0.2,20.7-0.2,36.4
		c0,0.6-0.2,0.8-0.8,0.8s-0.8,0-1-0.2l-24-31.6c-0.2-0.2-0.4-0.2-0.6-0.2c-0.2,0-0.2,0.2-0.2,0.4l0.6,26c0,1.6,0.4,2.8,0.8,3.4
		l0.8,0.8c0,0.4-0.2,0.4-0.8,0.4h-9.9c-0.8,0-1-0.2-1-0.4c0-0.4,0.4-0.6,1-0.8l2.2-0.4c1.4-0.2,2.2-1.4,2.2-3l0.6-31
		c0-1.8-0.4-3-1.6-3.4l-2.4-0.6c-1-0.2-1.4-0.6-1.4-0.8c0-0.4,0.4-0.4,1.2-0.4h6.6c0.6,0,1,0.2,1.4,0.6l21.3,28
		c0.2,0.4,0.6,0.4,0.8,0.4s0.4-0.2,0.4-0.6c0-6.8,0-14.5-0.2-23.4c0-1.8-0.8-2.8-2.2-3l-2.4-0.4c-0.8-0.2-1.2-0.4-1.2-0.8
		c0-0.4,0.4-0.4,1.2-0.4h13.1C553.6,660,554,660.2,554,660.6z"/>
	<path fill="#58627A" d="M590.4,690.4c0,4-1.4,7-4.4,8.9c-2.6,1.8-5.8,2.6-9.9,2.6c-1.8,0-4-0.2-6.6-0.6c-2.8-0.4-4.8-0.6-5.6-0.6
		c-0.2,0-0.6-0.2-1-0.8l-1.2-10.5c0-0.6,0.2-0.8,0.4-0.8s0.4,0.2,0.6,0.6c1.2,3.6,3,6.2,5,7.7c2,1.6,5,2.4,8.7,2.4
		c2.4,0,4.4-0.6,6-1.6c1.8-1.2,2.8-3,2.8-5.2c0-3.4-2-6-6-7.9c-2.4-1.2-6.2-2.8-11.1-5.2c-4-2.4-6-5.6-6-9.3c0-3.4,1.2-6,3.4-8.1
		c2.2-1.8,5-2.8,8.3-2.8c2.2,0,4.8,0.2,7.6,0.6c1.2,0,2.4,0.2,3.6,0.2c2,0.2,3,0.8,3,1.4v10.5c0,0.6-0.2,0.8-0.6,0.8
		c-0.2,0-0.4-0.2-0.6-0.6c-0.8-3.6-2.2-6.2-4.2-7.7c-2-1.4-5-2.2-8.7-2.2c-2,0-3.6,0.4-4.8,1.2c-1.4,1-2.2,2.4-2.2,4.2
		c0,3,2,5.6,6,7.4c1.2,0.6,4.8,2.2,11.1,5.2C588.4,682.4,590.4,686,590.4,690.4z"/>
</g>
<g>
	<path fill="#58627A" d="M272.9,764.3l-2.6,15.5c-0.2,0.8-0.6,1.2-1.4,1.2h-41.3c-1.2,0-1.6-0.2-1.6-0.8s0.4-1,1.4-1.2
		c2-0.4,3.2-2,3.2-4.6c0,3.4,0-3,0.2-19.1c0-3.6,0-7,0-10.3c0-15.5-0.2-21.7-0.2-18.3c0-2.6-1-4.2-3.2-4.6l-4.2-0.6
		c-1-0.2-1.4-0.6-1.4-1.2s0.6-0.8,1.6-0.8h25.4c1.2,0,1.6,0.2,1.6,0.8s-0.4,1-1.4,1.2l-3.2,0.6c-2.4,0.4-3.6,2-3.6,4.6
		c0-2.8,0,3.4-0.2,18.3c0,3.6,0,7,0,10.5c0,16.7,0.2,23,0.2,19.3c0,1.2,0.6,1.8,2,1.8h10.9c5,0,8.5-1.2,10.7-3.6
		c1.6-1.6,3-4.8,4.2-9.3c0.2-0.8,0.8-1.4,1.6-1.4C272.7,762.3,273.1,763.1,272.9,764.3z"/>
	<path fill="#58627A" d="M332.3,764.3l-2.6,15.5c-0.2,0.8-0.6,1.2-1.4,1.2h-42.7c-1.2,0-1.6-0.2-1.6-0.8s0.4-1,1.4-1.2
		c2-0.4,3.2-2,3.2-4.6c0,3.4,0-3,0.2-19.1c0-3.6,0-7,0-10.3c0-15.5-0.2-21.5-0.2-18.3c0-2.6-1.2-4-3.4-4.4l-4-0.6
		c-1-0.2-1.6-0.6-1.6-1.2s0.6-1,1.6-1h46.5c0.6,0,1,0.4,1.2,1.2l1,14.5c0,0.8-0.2,1.2-1,1.2c-0.6,0-1.2-0.4-1.6-1.4
		c-1.8-4.6-3.8-7.6-5.6-8.9c-1.8-1.4-5-2.2-9.1-2.2h-10.3c-1.6,0-2.2,0.8-2.2,2.2v19.1c0.2,0.2,0.4,0.6,0.8,0.8l17.9-0.6
		c0.6,0,1,0.4,1,1v5.2c0,0.6-0.4,1-1,1l-18.3-0.6c-0.2,0.2-0.4,0.4-0.6,0.8v21.9c0,1.2,0.6,1.8,2,1.8h12.5c4.8,0,8.3-1.2,10.7-3.6
		c1.6-1.6,3-4.8,4.2-9.3c0.2-0.8,0.8-1.4,1.6-1.4C332.3,762.3,332.5,763.1,332.3,764.3z"/>
	<path fill="#58627A" d="M403.6,780.2c0,0.6-0.6,0.8-1.6,0.8h-24.4c-1.2,0-1.6-0.2-1.6-0.8s0.6-1,1.8-1.2l3.2-0.6
		c1.6-0.2,2.2-1.2,2.2-2.6c0-0.4,0-0.8-0.2-1l-4-10.7c-0.2-0.4-0.6-0.8-1.2-0.8h-19.1c-0.6,0-1,0.2-1.2,0.8l-4,12.1
		c-0.4,1.2-0.4,2.2-0.2,2.6c0.2,0.2,0.4,0.4,0.8,0.6c0.4,0.2,0.6,0.4,0.6,0.8c0,0.6-0.6,0.8-1.8,0.8h-13.7c-1.2,0-1.6-0.2-1.6-0.8
		c0-0.4,1.2-1.2,3.8-1.8c1.4-0.4,2.4-1.2,2.8-2.2l21.9-56.2c0.2-0.8,1.6-1.2,3.8-1.2c2.4,0,3.8,0.4,4,1.2l22.9,56.4
		c0.4,1.2,1.4,1.8,2.6,2.2l2.6,0.6C403,779.2,403.6,779.6,403.6,780.2z M377,757.9l-8.5-22.9c0-0.2-0.2-0.4-0.6-0.4
		c-0.2,0-0.4,0.2-0.4,0.4l-7.7,22.9c-0.2,0.6,0,1,0.6,1h16.1C377.2,758.9,377.4,758.5,377,757.9z"/>
	<path fill="#58627A" d="M464.6,751.8c0,0.4-0.4,0.8-1.2,1l-3.2,0.8c-2.2,0.4-3.4,2-3.4,4.6v19.3c0,1.4,0.2,2.4,0.8,2.8
		c0.4,0.4,0.6,0.6,0.6,1c0,0.6-0.4,0.8-1,0.8c-0.4,0-0.8-0.2-1.2-0.4l-6.4-2.8c-1-0.4-1.6-0.4-2.2,0c-1.2,0.8-2.8,1.8-5.4,2.4
		c-2.4,0.8-4.8,1-7,1c-8.3,0-14.9-2.6-20.1-7.9c-5.4-5.8-8.1-13.9-8.1-24.2c0-9.5,2.6-17.3,7.6-23.2s11.5-8.7,19.3-8.7
		c2.4,0,5.6,0.2,8.9,0.6c4.6,0.4,7.4,0.8,8.5,0.8s1.8,0.6,1.8,1.4l-0.2,15.9c0,1.2-0.4,1.8-1.2,1.8c-0.6,0-1-0.4-1.2-1.4
		c-1-4.8-2.8-8.3-5.2-10.7c-2.8-2.6-6.6-3.8-11.3-3.8c-9.5,0-14.1,9.7-14.1,29c0,6.8,1,12.5,3,16.9c2.6,6.2,7,9.1,12.7,8.9
		c2.4,0,4.8-1,7.2-3.2c2.4-2,3.6-4.6,3.6-7.6v-9.7c0-1.6-0.4-3-1.2-3.8c-0.8-0.8-1.2-1.4-1.2-1.6c0-0.8,0.6-1.2,1.8-1.2H463
		C464.2,750.8,464.6,751.2,464.6,751.8z"/>
	<path fill="#58627A" d="M531.2,720.4c0,0.4-0.4,0.8-1.4,1.2l-2.4,0.6c-2.2,0.6-3.4,2.2-3.6,4.6l-0.6,36
		c-0.2,13.3-7.6,20.1-21.9,20.1c-16.1,0-24.2-6.8-24.4-20.1l-0.4-36c0-2.6-1.2-4.2-3.4-4.6l-3.2-0.6c-1,0-1.4-0.4-1.4-1.2
		c0-0.6,0.6-1,1.6-1h24.2c1.2,0,1.6,0.4,1.6,1c0,0.6-0.4,1-1.4,1.2l-3.2,0.6c-2.2,0.4-3.4,2-3.4,4.6l-0.2,35.2c0,4.6,1.4,8.3,4,11.1
		s6,4,9.7,4c3.6,0,6.4-1,8.7-3.2c2.8-2.6,4.2-6.2,4.2-10.9l0.2-35.2c0-3-0.8-5-2.6-5.8c-1.2-0.6-1.8-1.2-1.8-1.6c0-0.6,0.6-1,1.8-1
		h17.5C530.6,719.4,531.2,719.8,531.2,720.4z"/>
	<path fill="#58627A" d="M592.2,764.3l-2.6,15.5c-0.2,0.8-0.6,1.2-1.4,1.2h-42.7c-1.2,0-1.6-0.2-1.6-0.8s0.4-1,1.4-1.2
		c2-0.4,3-2,3-4.6c0,3.4,0-3,0.2-19.1c0-3.6,0-7,0-10.3c0-15.5-0.2-21.5-0.2-18.3c0-2.6-1.2-4-3.4-4.4l-4-0.6
		c-1-0.2-1.6-0.6-1.6-1.2s0.6-1,1.6-1h46.5c0.6,0,1,0.4,1.2,1.2l1,14.5c0,0.8-0.2,1.2-1,1.2c-0.6,0-1.2-0.4-1.6-1.4
		c-1.8-4.6-3.8-7.6-5.6-8.9c-1.8-1.4-5-2.2-9.1-2.2h-9.9c-1.6,0-2.2,0.8-2.2,2.2v19.1c0.2,0.2,0.4,0.6,0.8,0.8l17.9-0.6
		c0.6,0,1,0.4,1,1v5.2c0,0.6-0.4,1-1,1l-18.3-0.6c-0.2,0.2-0.4,0.4-0.6,0.8v21.9c0,1.2,0.6,1.8,2,1.8h12.5c4.8,0,8.3-1.2,10.7-3.6
		c1.6-1.6,3-4.8,4.2-9.3c0.2-0.8,0.8-1.4,1.6-1.4C592,762.3,592.4,763.1,592.2,764.3z"/>
</g>
<g id="tquNlV_2_">
	<g>
		<path fill="#58627A" d="M494.9,660.6c-1.1,0.6-2.2,1.3-3.4,2c1.6,0.6,3,1.1,4.4,1.7c0,0.1,0,0.1-0.1,0.2c-1.2,0.1-2.4,0.2-3.6,0.2
			c-0.4,0-0.8,0.1-1.1,0.1c-1.4-0.2-2.1,0.7-2.6,1.9c-0.4,1.1-0.8,2.2-1.3,3.4c-0.8-1.1-1.7-2.1-2.4-3.3c-0.4-0.7-0.8-0.8-1.5-0.5
			c-1.2,0.5-2.5,0.9-4,1.2c1.3-1.2,2.6-2.3,3.9-3.6c-0.3-0.5-0.7-1.1-1.2-1.9c1.6-0.1,3.1-0.1,4.5-0.2c0.5,0,0.9-0.1,1.4-0.2
			c1.8-0.4,3.5-0.7,5.3-1.1C493.8,660.6,494.4,660.6,494.9,660.6z"/>
		<path fill="#58627A" d="M491.2,701.4c1-0.4,1.9-0.8,3-1.3c-0.6-0.4-1.1-0.7-1.6-1c-0.4-0.3-0.8-0.7-1.2-0.9c1.6,0,3,0.1,4.5,0
			c0.4,0,0.8-0.2,1.1-0.5c1-1.1,2-2.3,3.2-3.5c0,1.2,0,2.3,0,3.6c1.4-0.5,2.7-0.9,4.1-1.4c0.1,0.1,0.2,0.2,0.2,0.2
			c-0.2,0.1-0.4,0.1-0.6,0.3c-3.2,2.5-6.7,4-10.6,4.5c-0.2,0-0.4,0.1-0.6,0.2C492.2,701.4,491.7,701.4,491.2,701.4z"/>
		<path fill="#58627A" d="M482.7,672.9c1.7,0.8,3.2,1.4,4.7,2.2c0.7,0.4,1.2,0.3,1.8-0.4c1.2-1.5,2.6-2.9,4-4.3
			c0.2-0.2,0.4-0.3,0.6-0.5c-0.2,2.5-0.4,5-0.6,7.5c2.4,0.7,4.7,1.4,7.3,2.2c-2.2,0.8-4.2,1.5-6.3,2.1c-0.9,0.3-1.2,0.7-1.2,1.6
			c0.1,1.8,0.1,3.6,0.1,5.6c-1.1-1.2-2-2.2-2.9-3.2c-0.3-0.3-0.6-0.6-0.8-1c-0.6-1.3-1.6-1.4-2.9-1c-1.4,0.4-2.9,0.6-4.7,0.9
			c1-1.4,1.8-2.7,2.7-3.9c0.9-1,1.1-1.9,0.3-3.1c-0.7-1.1-1.1-2.5-1.7-3.7C482.9,673.7,482.8,673.3,482.7,672.9z"/>
		<path fill="#58627A" d="M507.7,693c-1.7-1.6-1.6-1.6-3.4-0.7c-1.2,0.6-2.4,1-3.7,1.5c-0.1-0.1-0.1-0.2-0.1-0.2
			c0.9-1.3,1.8-2.7,2.5-3.9c-1.4-1.4-2.7-2.7-4.1-4c0.1-0.1,0.1-0.1,0.2-0.2c1.7,0,3.4,0,5.1,0c0.8,0,1.3-0.3,1.6-1
			c0.7-1.8,1.5-3.5,2.4-5.3c0.2,1.7,0.4,3.4,0.6,5.4c0.9-0.6,1.7-1.1,2.4-1.7c-0.3,1.7-0.9,3.3-1.9,4.7c-0.5,0.7-0.8,1.5-0.9,2.4
			C508.4,690.9,508,691.9,507.7,693z"/>
		<path fill="#58627A" d="M490.8,697.9c-1.3,0.1-2.6,0.1-4.1,0.2c0.2,1,0.4,1.9,0.6,3c-0.9-0.5-2-0.8-2.6-1.5
			c-1.5-1.6-3.3-2.3-5.3-2.9c-1.1-0.3-2.1-1-3.4-1.7c1.6-0.2,2.8-0.4,4.2-0.6c-0.8-1.7-1.4-3.2-2.1-4.7c0.1-0.1,0.2-0.1,0.2-0.2
			c0.2,0.2,0.5,0.4,0.7,0.6c1,0.8,2.1,1.6,3,2.4c0.6,0.5,1,0.4,1.6,0c1.2-1,2.5-1.9,3.9-2.9c-0.1,0.7-0.2,1.3-0.3,2
			c-0.1,0.8-0.2,1.7-0.4,2.5c-0.3,1.2,0.2,1.7,1.2,2.1c0.9,0.4,1.9,0.9,2.7,1.4C490.8,697.8,490.8,697.8,490.8,697.9z"/>
		<path fill="#58627A" d="M503.4,664.6c0.1,0.1,0.1,0.1,0.2,0.1c2.1,2.8,4.2,5.6,6.4,8.4c0.2,0.2,0.2,0.4,0.4,0.7
			c-0.8-0.3-1.6-0.6-2.4-0.9c0.2,2,0.4,3.7,0.5,5.5c-0.1,0-0.1,0-0.2,0.1c-0.9-1.4-1.8-2.9-2.6-4.3c-0.6-1.1-1.3-1.6-2.6-1.3
			c-1.3,0.3-2.7,0.4-4.1,0.6c1-1.3,2-2.7,3.2-4.1c-1.7-1.5-3.3-2.9-5.1-4.5c0.8,0.2,1.5,0.3,2.2,0.5c0.7,0.2,1.3,0.4,2,0.6
			c0.7,0.3,1.3,0.5,2.1,0.8C503.2,665.9,503.2,665.2,503.4,664.6z"/>
		<path fill="#58627A" d="M474.1,686.8c-0.5,1.1-0.9,2.2-1.3,3.3c-0.1,0-0.2,0.1-0.2,0.1c-0.3-1.3-0.6-2.7-0.7-4.1
			c-0.1-1-0.3-1.9-0.8-2.8c-0.7-1-0.6-1.3,0.6-1.9c0.6-0.3,0.9-0.7,1.2-1.3c0.5-1.2,1.1-2.4,1.6-3.5c0.1,0,0.2,0.1,0.3,0.1
			c0.2,1.2,0.3,2.4,0.5,3.6c1.7-0.2,3.3-0.3,4.8-0.4c-0.9,1-1.8,2.1-2.7,3c-1,0.9-1.2,1.9-0.6,3.1c0.5,1,0.8,2,1.3,3.3
			C476.4,688.3,475.3,687.6,474.1,686.8z"/>
		<path fill="#58627A" d="M477.8,665.2c-0.5,1-1,2-1.6,3.1c0.9-0.1,1.7-0.2,2.5-0.3c0.1,0.1,0.1,0.1,0.1,0.2
			c-0.4,0.3-0.7,0.7-1.2,0.9c-2.3,1.3-2.9,3.5-2.9,5.9c0,0.3,0,0.5-0.2,0.9c-0.5-0.7-0.9-1.4-1.4-2.3c-0.7,1-1.4,2-2.2,3.1
			C471.8,671.9,474.2,668.2,477.8,665.2z"/>
	</g>
</g>
</svg>
